<svg xmlns="http://www.w3.org/2000/svg" width="500" height="500" viewBox="0 0 500 500">
<g>
<path d="M 308.23 379.74 C307.68,379.06 306.91,376.48 306.53,374.00 C305.10,364.73 297.40,339.58 295.52,338.02 C294.82,337.44 293.52,337.25 292.63,337.59 C291.25,338.12 290.97,340.27 290.78,351.36 C290.66,358.59 290.66,367.20 290.79,370.50 C291.03,376.73 290.02,379.75 288.11,378.57 C287.35,378.10 287.00,371.11 287.00,356.51 C287.00,332.37 286.09,334.69 296.00,333.46 C302.80,332.62 308.31,330.43 307.77,328.80 C307.47,327.91 303.13,327.55 291.93,327.46 C276.23,327.35 266.94,325.94 252.35,321.48 C249.33,320.55 248.50,323.51 248.76,334.33 C248.99,343.99 248.11,346.70 243.34,351.14 C240.01,354.24 231.38,358.86 226.75,360.03 C204.07,365.71 199.27,366.38 180.50,366.42 C167.78,366.45 161.23,366.00 154.50,364.62 C127.64,359.12 113.00,350.08 113.00,339.00 C113.00,333.48 116.71,328.62 126.25,321.64 C129.94,318.94 130.00,318.79 130.00,312.15 C130.00,308.08 129.50,304.90 128.75,304.15 C126.60,302.00 127.30,288.09 129.81,282.90 C133.08,276.14 137.45,273.73 156.13,268.41 C158.17,267.82 159.00,263.80 159.00,254.42 C159.00,245.36 160.54,237.89 163.52,232.55 C165.62,228.79 165.69,228.25 164.33,225.65 C163.51,224.10 163.16,222.08 163.54,221.17 C163.92,220.25 164.51,217.04 164.86,214.04 C165.42,209.26 165.93,208.29 168.90,206.29 C171.42,204.59 172.36,203.18 172.55,200.79 C172.80,197.60 175.95,194.00 178.50,194.00 C180.40,194.00 181.00,191.61 181.00,183.99 C181.00,178.09 181.36,176.73 183.59,174.08 C186.97,170.05 190.87,170.01 195.81,173.93 C198.22,175.84 201.54,177.22 205.38,177.92 C211.02,178.94 213.90,180.89 213.97,183.76 C214.04,186.76 209.45,194.26 205.11,198.21 C198.52,204.22 198.39,204.62 201.98,207.64 C203.69,209.07 205.95,211.95 207.01,214.03 C209.42,218.75 214.17,222.71 222.24,226.71 C233.80,232.45 240.07,234.03 252.34,234.26 C263.40,234.47 263.72,234.41 270.51,230.99 C277.37,227.53 280.89,223.89 275.88,225.43 C262.06,229.70 259.33,228.82 247.24,216.18 C237.70,206.21 235.87,203.03 237.85,199.86 C239.83,196.69 239.12,192.65 235.65,187.49 C233.81,184.74 231.55,180.20 230.62,177.39 C229.69,174.59 227.86,171.28 226.55,170.04 C222.69,166.42 221.52,162.59 223.09,158.75 C224.74,154.73 226.62,152.70 230.53,150.71 C232.24,149.85 233.63,148.31 233.71,147.18 C234.04,142.82 244.99,129.53 254.00,122.54 C265.01,114.01 266.35,113.63 285.50,113.52 C301.41,113.44 303.02,113.25 310.50,110.64 C321.75,106.71 327.19,106.19 329.78,108.78 C332.78,111.78 334.71,120.08 335.41,133.00 C335.76,139.32 336.32,149.52 336.66,155.67 C337.27,166.56 337.22,166.94 334.56,171.50 C331.85,176.11 331.84,176.21 333.41,181.02 C335.70,188.00 335.48,197.63 332.92,202.92 L 330.85 207.22 L 333.77 210.86 C338.52,216.78 339.63,221.00 338.07,227.23 C337.34,230.13 336.28,233.08 335.71,233.79 C334.96,234.74 335.50,235.94 337.72,238.29 C339.39,240.06 341.31,242.57 341.99,243.88 C343.40,246.64 342.69,252.76 340.45,257.10 C339.08,259.74 339.13,260.33 340.98,263.95 C343.53,268.95 343.53,275.24 340.98,280.86 C339.89,283.26 339.00,285.62 339.00,286.11 C339.00,286.60 341.44,287.00 344.43,287.00 C351.50,287.00 353.24,288.61 352.34,294.32 C351.18,301.67 351.07,301.47 356.48,301.81 C362.93,302.22 364.90,304.96 361.32,308.53 C360.40,309.46 359.61,311.83 359.57,313.82 C359.52,316.62 358.94,317.71 357.00,318.70 C354.27,320.09 349.04,320.36 344.11,319.37 C339.74,318.50 333.16,312.30 331.55,307.54 C329.92,302.71 328.71,302.14 327.19,305.47 C325.87,308.38 323.45,308.72 320.85,306.37 C319.17,304.84 318.99,304.90 318.09,307.26 C317.56,308.65 316.84,311.34 316.48,313.23 L 315.84 316.68 L 322.99 317.86 C331.92,319.34 344.48,324.52 347.05,327.80 C350.18,331.78 349.07,341.27 344.76,347.33 C343.64,348.90 343.14,350.51 343.63,350.97 C344.11,351.41 347.49,352.77 351.15,353.99 C359.84,356.88 364.22,359.58 363.82,361.78 C363.44,363.81 353.90,368.82 348.84,369.64 C345.85,370.12 344.20,369.54 338.40,365.90 C334.60,363.53 331.19,361.13 330.80,360.57 C330.42,360.02 329.86,359.81 329.55,360.12 C329.24,360.43 330.34,363.97 331.99,367.98 C334.99,375.24 335.88,381.00 334.02,381.00 C332.49,381.00 330.45,377.26 326.39,367.00 C322.40,356.92 314.74,343.30 310.51,338.78 C308.41,336.53 307.41,336.16 304.74,336.67 C302.96,337.01 301.30,337.46 301.05,337.68 C300.80,337.89 302.26,342.89 304.29,348.78 C308.59,361.26 310.96,370.98 310.99,376.19 C311.00,380.19 309.82,381.71 308.23,379.74 ZM 356.70 362.63 C357.56,361.78 355.96,360.00 354.34,360.00 C353.49,360.00 348.94,358.19 344.23,355.99 C336.72,352.47 325.08,348.59 324.32,349.35 C323.74,349.93 333.44,357.39 340.12,361.51 L 347.17 365.85 L 351.68 364.49 C354.17,363.75 356.42,362.91 356.70,362.63 ZM 209.50 359.60 C224.97,357.09 234.94,353.06 241.21,346.79 C244.27,343.73 244.99,342.28 244.97,339.25 C244.93,335.20 243.29,332.72 238.35,329.23 C233.63,325.90 232.54,326.32 232.23,331.60 C231.88,337.71 230.73,339.59 225.76,342.12 C209.56,350.39 182.48,353.22 159.00,349.09 C146.63,346.92 138.71,343.64 133.66,338.59 C130.54,335.47 130.00,334.27 130.00,330.47 C130.00,328.01 129.65,326.00 129.23,326.00 C127.37,326.00 120.89,331.32 119.51,333.98 C113.58,345.45 127.50,355.07 158.00,360.55 C167.37,362.24 196.62,361.70 209.50,359.60 ZM 200.09 345.52 C212.35,343.59 215.67,342.74 220.50,340.26 C225.89,337.50 227.65,335.29 228.48,330.25 C229.04,326.85 228.86,325.88 227.57,325.39 C226.69,325.05 225.42,325.20 224.74,325.72 C222.28,327.61 212.36,330.88 205.92,331.93 C196.37,333.48 171.00,333.23 161.12,331.48 C156.50,330.66 148.80,328.65 144.00,327.00 C139.19,325.35 134.98,324.00 134.63,324.00 C134.28,324.00 134.00,325.85 134.00,328.12 C134.00,331.55 134.63,332.87 137.79,336.02 C146.45,344.69 176.38,349.25 200.09,345.52 ZM 339.78 345.44 C342.53,343.51 345.00,338.90 345.00,335.70 C345.00,330.60 336.97,325.25 325.04,322.40 C321.99,321.67 318.21,321.06 316.63,321.04 C312.12,320.98 315.07,323.59 321.70,325.52 C330.84,328.17 340.00,335.36 340.00,339.88 C340.00,346.21 330.36,345.04 320.07,337.48 C316.73,335.02 314.00,333.25 314.00,333.56 C314.00,333.87 315.91,336.18 318.25,338.70 C325.19,346.17 334.55,349.10 339.78,345.44 ZM 334.00 337.69 C334.00,335.80 329.50,332.80 321.74,329.54 C315.03,326.71 312.39,326.55 315.47,329.15 C316.35,329.89 317.73,331.09 318.53,331.82 C320.49,333.59 331.17,338.97 332.75,338.99 C333.44,338.99 334.00,338.41 334.00,337.69 ZM 202.95 327.51 C214.08,325.84 221.17,323.71 225.25,320.81 C227.43,319.27 228.00,318.07 228.00,315.04 C228.00,311.76 227.63,311.12 225.42,310.57 C223.50,310.09 221.66,310.70 218.25,312.96 C212.87,316.52 210.34,316.72 205.26,314.00 C200.37,311.38 200.08,311.42 194.91,315.41 C188.27,320.55 183.07,320.57 177.00,315.50 C172.01,311.33 170.48,311.22 164.00,314.50 C155.51,318.80 150.68,317.51 146.49,309.81 C143.40,304.13 141.67,303.09 139.13,305.38 C138.15,306.27 136.59,307.00 135.67,307.00 C132.90,307.00 133.35,316.08 136.25,318.62 C145.68,326.88 178.24,331.22 202.95,327.51 ZM 245.31 324.75 C245.60,323.51 246.54,319.80 247.39,316.50 C249.31,309.03 249.47,299.63 247.70,298.17 C246.99,297.58 243.88,296.69 240.79,296.21 L 235.17 295.33 L 234.71 299.91 C234.45,302.44 233.69,306.40 233.01,308.73 C230.94,315.78 232.27,319.46 238.30,323.43 C244.58,327.56 244.63,327.57 245.31,324.75 ZM 295.72 318.00 C296.08,309.18 298.31,289.12 299.08,287.88 C299.46,287.25 300.28,287.06 300.91,287.44 C302.12,288.19 301.75,297.17 299.85,313.35 C299.19,318.88 299.16,322.56 299.74,323.14 C301.16,324.56 303.22,321.51 304.09,316.70 C304.51,314.39 306.10,305.42 307.63,296.78 C309.55,285.99 310.88,280.88 311.86,280.50 C313.08,280.03 313.21,281.33 312.68,288.76 C312.15,296.14 310.32,304.92 306.40,318.75 C305.41,322.27 308.49,321.57 310.82,317.75 C313.81,312.86 317.23,300.34 316.50,296.99 C316.11,295.23 316.42,293.24 317.30,291.81 C318.08,290.54 319.27,285.45 319.93,280.50 C320.60,275.55 321.78,269.33 322.55,266.68 C323.79,262.48 323.78,261.41 322.48,258.31 C321.60,256.20 321.00,251.60 321.00,246.99 C321.00,239.29 320.95,239.15 315.75,231.31 L 310.50 223.40 L 307.16 225.66 C301.36,229.58 293.43,232.00 286.34,232.00 C281.06,232.00 278.53,232.59 273.62,234.98 C269.26,237.11 265.19,238.19 259.50,238.73 C253.40,239.32 251.50,239.86 251.50,241.00 C251.50,242.04 252.27,242.38 254.00,242.10 C258.97,241.32 262.32,241.52 262.70,242.64 C263.13,243.89 257.97,246.00 254.46,246.00 C251.70,246.00 250.59,248.42 252.59,250.08 C253.75,251.04 255.22,251.04 259.45,250.10 C264.03,249.07 265.05,248.41 266.40,245.58 C268.11,241.97 273.92,237.00 276.43,237.00 C278.87,237.00 278.31,238.40 274.50,241.86 C270.50,245.50 270.20,246.61 272.96,247.49 C277.36,248.88 286.00,246.29 293.49,241.31 C299.00,237.65 300.00,237.35 300.00,239.37 C300.00,240.91 293.39,246.62 288.64,249.19 C285.68,250.79 277.50,252.67 275.67,252.17 C275.21,252.05 272.28,252.60 269.17,253.40 C248.92,258.62 247.42,258.69 238.99,254.99 C226.44,249.49 223.21,249.90 219.22,257.50 C217.00,261.73 217.03,272.51 219.27,277.19 C221.64,282.15 228.13,287.52 234.92,290.14 C242.40,293.04 260.90,293.22 272.00,290.51 C286.03,287.09 302.56,277.12 311.19,266.89 C317.00,260.00 320.43,260.50 316.10,267.61 C313.58,271.73 306.68,277.55 294.54,285.76 L 284.58 292.50 L 282.72 301.00 C281.69,305.67 280.61,312.54 280.32,316.25 L 279.77 323.00 L 282.89 323.00 C285.93,323.00 286.00,322.89 286.00,318.33 C286.00,314.22 287.20,304.86 288.57,298.25 C288.83,297.01 289.77,296.00 290.66,296.00 C292.06,296.00 292.19,296.87 291.61,302.25 C291.24,305.69 290.66,312.02 290.31,316.33 L 289.69 324.16 L 292.60 323.83 C295.38,323.51 295.51,323.27 295.72,318.00 ZM 274.80 320.80 C275.46,320.14 276.00,318.68 276.00,317.55 C275.99,316.42 276.94,310.64 278.11,304.70 C279.27,298.76 280.03,293.70 279.80,293.46 C279.56,293.23 276.25,293.95 272.43,295.08 C268.62,296.20 262.86,297.51 259.64,298.00 C256.42,298.48 253.63,299.04 253.44,299.23 C253.24,299.43 252.77,303.27 252.40,307.78 L 251.71 315.98 L 255.15 317.42 C257.80,318.52 268.78,321.29 273.05,321.92 C273.35,321.96 274.14,321.46 274.80,320.80 ZM 192.37 311.34 C197.56,307.30 202.32,306.67 206.60,309.47 C210.11,311.77 213.31,311.33 217.57,307.95 C220.83,305.35 221.97,304.99 225.13,305.52 C228.21,306.04 229.03,305.81 229.92,304.14 C231.16,301.83 231.37,296.34 230.24,295.65 C229.83,295.39 227.02,296.22 223.99,297.49 C216.11,300.81 204.86,302.24 186.00,302.32 C162.97,302.41 145.30,298.72 136.03,291.86 C134.38,290.64 132.71,289.96 132.32,290.35 C131.93,290.73 131.62,293.32 131.62,296.10 C131.62,302.03 133.26,303.72 136.79,301.40 C138.11,300.54 140.69,300.02 142.77,300.19 C146.07,300.47 146.75,301.06 149.50,306.00 C152.28,310.99 152.91,311.53 156.34,311.81 C158.82,312.02 161.32,311.42 163.62,310.06 C169.03,306.87 174.01,307.33 179.00,311.50 C181.30,313.42 184.20,315.00 185.43,315.00 C186.66,315.00 189.79,313.35 192.37,311.34 ZM 327.02 299.97 C329.57,294.96 328.92,293.74 324.17,294.60 C319.11,295.51 318.92,295.71 320.23,298.79 C322.96,305.19 324.24,305.41 327.02,299.97 ZM 211.50 296.65 C220.75,295.14 227.69,292.29 226.06,290.66 C225.32,289.92 222.84,290.31 217.75,291.98 C211.34,294.07 208.14,294.40 190.00,294.79 C167.76,295.26 163.10,294.63 158.17,290.49 C154.72,287.59 153.71,283.63 155.12,278.52 C155.68,276.48 155.93,274.60 155.67,274.34 C155.41,274.07 151.89,274.83 147.85,276.03 C140.26,278.27 134.00,282.08 134.00,284.46 C134.00,288.32 144.24,293.09 159.91,296.52 C167.64,298.21 201.44,298.30 211.50,296.65 ZM 348.04 295.92 C349.81,292.63 348.53,290.99 344.28,291.10 C335.20,291.34 332.60,293.98 339.20,296.26 C345.25,298.35 346.77,298.29 348.04,295.92 ZM 215.84 288.68 C217.68,287.67 218.92,286.59 218.59,286.26 C218.27,285.93 215.08,285.77 211.51,285.90 C207.94,286.03 203.44,285.57 201.52,284.87 C198.51,283.78 197.29,283.86 193.04,285.39 C188.01,287.20 183.51,286.96 179.87,284.68 C178.65,283.92 177.09,283.98 174.32,284.89 C172.21,285.59 168.91,286.01 166.99,285.83 C164.09,285.56 163.19,284.87 161.66,281.74 C159.55,277.42 157.50,277.77 158.41,282.31 C159.10,285.74 161.50,288.81 164.50,290.09 C165.60,290.56 176.85,290.84 189.50,290.72 C209.60,290.53 212.92,290.27 215.84,288.68 ZM 328.89 289.44 C329.72,288.62 326.67,286.00 324.88,286.00 C323.52,286.00 323.00,286.72 323.00,288.61 C323.00,290.95 323.28,291.15 325.75,290.53 C327.26,290.15 328.67,289.66 328.89,289.44 ZM 213.87 281.40 C214.73,280.68 212.93,278.00 210.56,276.45 C205.96,273.43 169.97,270.55 166.17,272.89 C165.15,273.53 164.55,276.87 164.84,280.36 C164.98,281.96 165.57,282.12 169.25,281.54 C174.77,280.68 179.57,280.68 184.39,281.55 C186.64,281.96 190.48,281.72 193.51,281.00 C197.91,279.94 199.43,279.98 203.12,281.25 C206.79,282.52 212.45,282.59 213.87,281.40 ZM 333.59 271.26 C332.50,270.16 331.75,271.90 332.53,273.71 C333.27,275.42 333.33,275.42 333.74,273.67 C333.98,272.67 333.91,271.58 333.59,271.26 ZM 163.84 269.45 C165.36,266.11 165.30,265.00 163.61,265.00 C162.08,265.00 161.00,267.10 161.00,270.08 C161.00,272.79 162.47,272.46 163.84,269.45 ZM 213.54 264.70 C213.57,258.81 214.01,256.80 215.79,254.30 C217.00,252.59 218.00,250.73 218.00,250.16 C218.00,249.59 215.53,246.30 212.52,242.84 C206.37,235.79 204.00,230.11 204.00,222.42 C204.00,217.65 203.62,216.77 199.64,212.37 C195.52,207.82 195.12,207.62 192.59,208.78 C190.28,209.83 189.53,209.71 187.06,207.88 C185.49,206.72 183.41,204.02 182.45,201.89 C181.48,199.75 180.40,198.00 180.05,198.00 C178.36,198.00 177.00,200.75 177.00,204.16 C177.00,208.17 175.12,210.00 171.03,210.00 C169.20,210.00 168.94,210.56 169.04,214.25 C169.11,216.59 168.85,219.71 168.47,221.20 C167.53,224.91 170.81,227.76 181.46,232.51 C188.07,235.46 190.24,236.95 191.46,239.39 C193.45,243.37 197.73,251.11 201.47,257.50 C204.50,262.67 211.86,272.00 212.91,272.00 C213.23,272.00 213.52,268.71 213.54,264.70 ZM 203.00 268.38 C203.00,268.03 201.07,264.55 198.70,260.63 C196.34,256.71 193.63,251.83 192.68,249.79 C191.73,247.75 190.56,245.85 190.10,245.56 C189.63,245.27 186.52,248.29 183.18,252.27 C179.84,256.25 175.49,261.02 173.51,262.87 C171.53,264.73 170.10,266.43 170.32,266.66 C170.55,266.88 176.53,267.44 183.62,267.89 C201.76,269.04 203.00,269.08 203.00,268.38 ZM 175.63 254.25 C183.61,246.61 186.48,242.68 185.65,240.54 C185.34,239.73 181.61,237.42 177.36,235.40 L 169.63 231.73 L 167.51 234.38 C164.44,238.24 161.85,254.84 163.61,259.42 C164.84,262.63 168.56,261.02 175.63,254.25 ZM 245.39 244.65 C244.76,239.31 244.66,239.16 241.12,238.50 C239.13,238.14 236.15,237.23 234.50,236.48 C232.85,235.74 228.41,233.75 224.63,232.07 C220.86,230.39 215.57,227.44 212.88,225.51 L 208.00 222.00 L 208.00 224.51 C208.00,228.13 211.33,234.65 216.49,241.13 C220.87,246.63 221.10,246.77 226.73,247.19 C229.91,247.43 234.07,248.32 236.00,249.18 C243.78,252.63 244.47,252.79 245.27,251.43 C245.69,250.71 245.74,247.66 245.39,244.65 ZM 331.20 249.39 C330.33,247.83 330.21,247.95 330.34,250.24 C330.43,251.71 330.88,252.52 331.35,252.05 C331.83,251.57 331.75,250.38 331.20,249.39 ZM 301.50 224.15 C305.07,222.47 307.99,220.74 307.97,220.30 C307.96,219.86 306.61,217.73 304.97,215.57 C303.34,213.41 302.00,210.79 302.00,209.76 C302.00,206.53 300.04,204.00 297.55,204.00 C293.83,204.00 292.00,202.96 292.00,200.85 C292.00,199.19 292.48,199.00 295.38,199.54 C305.90,201.52 313.33,185.47 305.51,177.66 C302.91,175.05 300.06,175.69 296.26,179.75 C294.06,182.10 292.58,183.03 292.29,182.25 C292.04,181.56 291.04,181.00 290.07,181.00 C289.10,181.00 286.78,180.23 284.90,179.29 C281.18,177.43 275.78,176.39 263.38,175.15 C251.45,173.97 246.33,170.69 239.50,159.86 L 236.13 154.52 L 234.99 157.51 C232.73,163.44 232.63,166.01 234.58,167.43 C236.14,168.57 236.22,169.03 235.10,170.38 C233.11,172.78 234.46,177.70 238.88,184.21 C243.62,191.18 244.68,195.79 242.51,199.98 L 240.94 203.01 L 246.94 209.18 C252.66,215.06 253.06,215.29 255.62,214.13 C259.32,212.44 260.83,214.08 258.65,217.41 C257.74,218.80 257.00,220.19 257.00,220.52 C257.00,221.47 263.75,224.00 266.31,224.00 C269.95,224.00 280.36,218.39 284.92,213.96 C287.16,211.78 289.43,210.00 289.94,210.00 C292.60,210.00 291.61,212.54 287.06,217.35 C282.34,222.33 280.95,225.59 282.75,227.44 C284.30,229.03 295.11,227.14 301.50,224.15 ZM 327.69 221.25 C327.44,220.29 327.23,221.07 327.23,223.00 C327.23,224.93 327.44,225.71 327.69,224.75 C327.94,223.79 327.94,222.21 327.69,221.25 ZM 312.02 210.37 C310.31,208.43 308.65,205.51 308.33,203.88 C307.67,200.58 305.67,200.51 305.19,203.76 C304.83,206.22 307.05,210.81 311.40,216.61 L 314.50 220.74 L 314.81 217.33 C315.06,214.66 314.44,213.13 312.02,210.37 ZM 194.35 201.79 C199.18,198.41 207.98,188.79 208.66,186.14 C209.43,183.16 207.74,182.04 202.47,182.02 C198.38,182.00 194.85,180.19 191.81,176.53 C190.47,174.91 189.76,174.72 188.34,175.59 C185.88,177.10 185.22,180.07 185.10,190.12 C185.02,197.41 185.32,199.13 187.07,201.37 C189.59,204.57 190.32,204.61 194.35,201.79 ZM 321.49 199.99 C320.50,198.89 319.46,198.20 319.20,198.47 C318.53,199.14 321.02,202.00 322.28,202.00 C322.85,202.00 322.49,201.10 321.49,199.99 ZM 329.66 184.75 C329.38,184.06 329.16,184.62 329.16,186.00 C329.16,187.38 329.38,187.94 329.66,187.25 C329.94,186.56 329.94,185.44 329.66,184.75 ZM 324.60 174.44 C333.04,171.60 333.31,171.09 332.64,159.00 C330.71,124.05 330.20,118.20 328.90,115.54 C326.41,110.47 325.43,110.44 311.45,114.98 C298.99,119.03 298.20,119.16 290.50,118.40 C280.22,117.40 272.21,117.36 268.80,118.28 C265.56,119.16 253.88,127.79 249.00,132.91 C241.72,140.55 237.00,146.33 237.00,147.60 C237.00,148.34 238.63,149.17 240.75,149.51 C249.03,150.85 254.84,152.41 261.81,155.15 C271.31,158.89 285.99,166.21 291.31,169.86 C294.79,172.25 296.47,172.72 301.25,172.65 C306.00,172.58 307.40,172.96 309.25,174.86 C311.81,177.47 315.88,177.36 324.60,174.44 ZM 265.66 165.00 C263.06,163.35 260.65,162.00 260.31,162.00 C259.15,162.00 263.49,166.23 265.50,167.05 C270.01,168.90 270.09,167.81 265.66,165.00 ZM 229.54 159.75 C229.94,158.13 229.81,157.00 229.22,157.00 C228.00,157.00 227.00,159.40 227.00,162.28 C227.00,165.04 228.63,163.41 229.54,159.75 ZM 319.54 378.75 C319.33,378.06 318.62,375.70 317.96,373.50 C317.30,371.30 314.49,363.77 311.71,356.76 C308.92,349.75 306.94,343.73 307.30,343.37 C308.53,342.14 310.71,345.01 314.81,353.25 C322.15,368.01 325.13,380.00 321.47,380.00 C320.63,380.00 319.76,379.44 319.54,378.75 ZM 296.67 378.00 C295.64,374.71 293.82,358.85 294.40,358.26 C295.67,356.99 297.24,359.97 298.57,366.15 C300.30,374.24 300.30,375.20 298.57,377.56 C297.40,379.16 297.06,379.23 296.67,378.00 ZM 236.50 284.07 C232.71,283.16 229.70,281.55 228.05,279.55 C226.95,278.23 227.06,278.00 228.81,278.00 C229.94,278.00 232.10,278.47 233.59,279.04 C235.09,279.61 241.76,280.07 248.41,280.07 C267.01,280.07 281.78,275.32 298.50,263.96 C302.35,261.35 307.05,257.59 308.95,255.60 C311.91,252.51 315.00,250.91 315.00,252.48 C315.00,254.02 310.74,259.47 306.93,262.80 C291.12,276.60 267.93,285.15 247.00,284.89 C242.88,284.84 238.15,284.47 236.50,284.07 ZM 228.87 272.60 C223.06,270.93 222.00,270.27 222.00,268.32 C222.00,267.13 222.64,266.92 224.75,267.43 C233.57,269.55 236.16,269.91 242.50,269.93 C246.35,269.94 251.07,269.55 253.00,269.06 C259.78,267.32 284.56,258.30 289.50,255.77 C296.87,252.00 303.54,245.66 306.09,240.02 C308.51,234.66 310.00,234.34 310.00,239.17 C310.00,250.28 296.07,259.49 261.50,271.26 C253.94,273.83 235.78,274.58 228.87,272.60 ZM 229.40 262.57 C226.26,261.20 224.39,258.50 225.93,257.54 C227.10,256.82 236.82,261.22 237.43,262.75 C238.11,264.43 233.43,264.33 229.40,262.57 ZM 260.85 203.56 C260.24,202.22 260.05,200.31 260.44,199.31 C261.11,197.59 261.21,197.59 262.57,199.44 C264.22,201.68 264.49,206.00 262.98,206.00 C262.42,206.00 261.46,204.90 260.85,203.56 ZM 266.50 203.00 C265.68,201.68 266.88,199.81 268.07,200.54 C269.28,201.29 269.28,204.00 268.06,204.00 C267.54,204.00 266.84,203.55 266.50,203.00 ZM 249.56 195.75 C249.35,195.06 248.72,193.07 248.16,191.31 C247.39,188.89 247.47,187.86 248.47,187.03 C249.98,185.77 253.00,188.13 253.00,190.57 C253.00,192.55 254.27,192.36 257.36,189.94 C262.19,186.13 263.78,189.92 259.20,194.31 C256.21,197.18 250.26,198.06 249.56,195.75 ZM 295.00 190.13 C295.00,188.54 299.13,184.00 300.57,184.00 C302.87,184.00 302.22,186.69 299.37,188.93 C296.57,191.12 295.00,191.56 295.00,190.13 ZM 191.00 197.43 C191.00,194.28 195.56,187.61 197.07,188.55 C197.52,188.82 197.39,190.50 196.80,192.27 C195.02,197.58 191.00,201.16 191.00,197.43 Z" fill="rgb(248, 239, 242)"/>
</g>
</svg>